<?xml version="1.0" encoding="UTF-8" standalone="no"?>
<svg
   xmlns:dc="http://purl.org/dc/elements/1.1/"
   xmlns:cc="http://creativecommons.org/ns#"
   xmlns:rdf="http://www.w3.org/1999/02/22-rdf-syntax-ns#"
   xmlns:svg="http://www.w3.org/2000/svg"
   xmlns="http://www.w3.org/2000/svg"
   xmlns:sodipodi="http://sodipodi.sourceforge.net/DTD/sodipodi-0.dtd"
   xmlns:inkscape="http://www.inkscape.org/namespaces/inkscape"
   viewBox="0 0 319 466.5"
   id="Layer_1"
   overflow="hidden"
   version="1.1"
   sodipodi:docname="eosioicon.svg"
   inkscape:version="0.92.3 (2405546, 2018-03-11)">
  <metadata
     id="metadata9">
    <rdf:RDF>
      <cc:Work
         rdf:about="">
        <dc:format>image/svg+xml</dc:format>
        <dc:type
           rdf:resource="http://purl.org/dc/dcmitype/StillImage" />
      </cc:Work>
    </rdf:RDF>
  </metadata>
  <defs
     id="defs7" />
  <sodipodi:namedview
     pagecolor="#ffffff"
     bordercolor="#666666"
     borderopacity="1"
     objecttolerance="10"
     gridtolerance="10"
     guidetolerance="10"
     inkscape:pageopacity="0"
     inkscape:pageshadow="2"
     inkscape:window-width="1920"
     inkscape:window-height="1017"
     id="namedview5"
     showgrid="false"
     inkscape:zoom="0.50589496"
     inkscape:cx="159.5"
     inkscape:cy="233.25"
     inkscape:window-x="-8"
     inkscape:window-y="212"
     inkscape:window-maximized="1"
     inkscape:current-layer="Layer_1" />
  <path
     d="M257.3 151.9 160.1 16.6 64.6 151.8 14 367.6 160.1 453.9 307 367.7 257.3 151.9ZM300.8 356.4 251.8 272 230.9 236 255.2 158.8 300.8 356.4ZM253.3 152.3 228.2 231.3 161.9 116.7 161.8 25.2 253.3 152.3ZM226.7 235.9 186.1 363.6 134.5 363.6 94.3 234.9 160 120.7 226.7 235.9ZM158.2 25.3 158.3 116.6 92.8 230.2 68.4 152.3 158.2 25.3ZM66.2 158.8 90.2 234.9 21 355 66.2 158.8ZM92.2 240.3 130.7 363.6 20.7 363.5 92.2 240.3ZM22.3 367.1 131.9 367.1 157 447.5 22.3 367.1ZM160 445.4 136.6 367.1 184.9 367.1 160 445.4ZM163.2 447.5 188.7 367.1 299 367.1 163.2 447.5ZM189.9 363.6 229.1 240.2 248.8 274 300.6 363.6 189.9 363.6Z"
     id="path2"
     style="fill:#ffffff" />
</svg>
